<?xml version="1.0" standalone="no"?>
<!DOCTYPE svg PUBLIC "-//W3C//DTD SVG 20010904//EN"
 "http://www.w3.org/TR/2001/REC-SVG-20010904/DTD/svg10.dtd">
<svg version="1.0" xmlns="http://www.w3.org/2000/svg"
 width="464.000000pt" height="464.000000pt" viewBox="0 0 464.000000 464.000000"
 preserveAspectRatio="xMidYMid meet">
<metadata>
Created by potrace 1.11, written by Peter Selinger 2001-2013
</metadata>
<g transform="translate(0.000000,464.000000) scale(0.100000,-0.100000)"
fill="#000000" stroke="none">
<path d="M1975 3191 c-214 -429 -387 -782 -385 -784 3 -2 37 -18 75 -36 322
-148 323 -592 1 -743 -65 -30 -79 -33 -166 -33 -87 0 -101 3 -165 33 -93 44
-164 114 -207 206 -30 65 -33 79 -33 166 0 86 3 101 32 162 17 37 49 86 72
110 l40 44 -445 445 c-406 406 -444 441 -444 413 0 -17 83 -568 185 -1224 102
-657 185 -1198 185 -1202 0 -4 743 -8 1650 -8 908 0 1650 4 1650 8 0 4 83 545
185 1202 102 656 185 1207 185 1224 0 28 -38 -7 -444 -413 l-445 -445 40 -44
c23 -24 55 -73 72 -110 29 -61 32 -76 32 -162 0 -87 -3 -101 -33 -166 -43 -92
-114 -162 -207 -206 -64 -30 -78 -33 -165 -33 -87 0 -101 3 -166 33 -322 151
-321 595 1 743 39 18 72 34 75 36 5 5 -772 1563 -780 1563 -3 0 -180 -351
-395 -779z"/>
</g>
</svg>
